<?xml version="1.0" standalone="no"?>
<!DOCTYPE svg PUBLIC "-//W3C//DTD SVG 20010904//EN"
 "http://www.w3.org/TR/2001/REC-SVG-20010904/DTD/svg10.dtd">
<svg version="1.0" xmlns="http://www.w3.org/2000/svg"
 width="980.000000pt" height="980.000000pt" viewBox="0 0 980.000000 980.000000"
 preserveAspectRatio="xMidYMid meet">

<g transform="translate(0.000000,980.000000) scale(0.100000,-0.100000)"
fill="#000000" stroke="none">
<path d="M0 4900 l0 -4900 4900 0 4900 0 0 4900 0 4900 -4900 0 -4900 0 0
-4900z m2941 2756 c386 -82 732 -619 979 -1520 77 -281 171 -727 195 -929 4
-32 9 -56 11 -55 1 2 15 73 29 158 142 840 359 1499 632 1920 85 131 241 292
336 349 211 125 413 117 617 -22 73 -50 225 -203 304 -306 417 -545 813 -1550
1070 -2721 25 -113 51 -240 59 -282 l15 -78 -379 0 -378 0 -5 33 c-3 17 -10
70 -16 117 -6 47 -24 175 -41 285 -179 1190 -483 2162 -762 2439 -70 70 -115
90 -184 83 -328 -34 -607 -823 -757 -2142 -27 -235 -52 -508 -61 -670 -3 -55
-8 -110 -11 -122 l-4 -23 -465 0 c-256 0 -465 2 -465 4 0 82 -64 760 -90 956
-68 516 -116 781 -197 1089 -175 671 -425 1009 -654 884 -284 -154 -606 -1094
-818 -2389 -118 -719 -200 -1701 -201 -2397 l0 -187 -417 2 -418 3 3 175 c25
1472 425 3239 985 4358 254 504 534 850 774 953 115 49 200 59 314 35z m-587
-3854 c33 -122 61 -220 63 -218 2 2 30 102 62 222 l58 219 149 0 148 0 62
-400 c34 -220 59 -403 57 -407 -2 -5 -56 -8 -118 -8 -111 0 -115 1 -120 23 -6
27 -55 393 -55 416 -1 35 -18 -17 -69 -204 -28 -104 -56 -200 -61 -211 -8 -20
-17 -22 -113 -23 -58 -1 -107 2 -110 6 -3 4 -31 103 -62 218 -32 116 -60 213
-64 217 -4 4 -19 -90 -34 -209 -17 -131 -33 -220 -40 -225 -13 -9 -221 -11
-229 -3 -3 3 1 40 8 83 7 42 31 196 54 342 22 146 46 293 52 328 l10 63 147
-3 146 -3 59 -223z m1941 214 c185 -49 294 -181 303 -367 9 -186 -72 -323
-232 -394 -74 -33 -188 -45 -428 -45 l-188 0 0 410 0 410 248 0 c174 0 262 -4
297 -14z m2973 -383 l-3 -398 -100 -3 c-55 -2 -110 0 -123 3 l-22 5 0 389 c1
214 4 391 7 395 4 3 60 6 125 6 l118 0 -2 -397z m800 0 l-3 -398 -118 -3
c-109 -2 -119 -1 -124 16 -4 18 -7 17 -51 -6 -42 -21 -57 -23 -137 -20 -101 5
-148 23 -204 80 -67 68 -97 165 -89 293 11 164 94 275 233 310 55 13 155 6
201 -14 l44 -20 0 80 0 79 125 0 125 0 -2 -397z m246 370 c-4 -16 -17 -64 -28
-108 l-21 -80 -64 -3 -64 -3 6 68 c4 37 7 87 7 111 l0 42 85 0 85 0 -6 -27z
m-4880 -68 c67 -18 131 -59 169 -108 30 -39 69 -132 60 -141 -4 -3 -55 -6
-114 -6 l-107 0 -20 34 c-24 40 -83 63 -124 47 -54 -21 -88 -90 -88 -181 0
-110 47 -180 121 -180 36 0 47 6 80 40 l38 40 111 0 c60 0 110 -2 110 -5 0 -2
-11 -29 -25 -60 -33 -75 -108 -147 -182 -175 -82 -31 -216 -25 -288 12 -140
73 -217 239 -186 405 40 219 226 335 445 278z m1760 -25 c144 -68 217 -227
186 -400 -22 -122 -87 -211 -190 -259 -49 -23 -67 -26 -170 -26 -140 0 -194
20 -265 96 -75 80 -90 124 -90 259 0 110 2 119 33 182 64 130 182 193 350 183
65 -3 95 -10 146 -35z m820 26 c65 -20 118 -58 144 -105 22 -38 22 -47 20
-318 l-3 -278 -100 -3 c-160 -5 -145 -27 -145 214 0 173 -3 209 -16 230 -41
62 -127 68 -180 13 l-29 -30 -5 -212 -5 -212 -113 -3 c-84 -2 -114 1 -117 10
-3 7 -6 165 -7 351 l-3 337 123 0 122 0 0 -25 0 -26 28 20 c61 45 199 63 286
37z m756 -11 c71 -25 116 -60 139 -108 20 -42 21 -56 19 -313 l-3 -269 -115 0
-115 0 -3 28 c-2 15 -5 27 -6 27 -2 0 -34 -16 -72 -36 -65 -34 -73 -36 -151
-32 -72 3 -86 7 -125 33 -124 88 -124 272 0 355 56 37 91 47 210 59 50 5 100
15 111 21 29 15 28 64 -1 84 -44 31 -138 10 -138 -30 0 -11 -21 -14 -115 -14
l-115 0 0 33 c0 33 30 91 59 115 26 21 98 52 144 62 60 13 224 4 277 -15z
m1988 -29 c91 -25 152 -87 152 -156 l0 -30 -115 0 c-97 0 -115 2 -115 15 0 27
-47 65 -80 65 -60 0 -95 -74 -47 -104 12 -8 68 -23 125 -35 189 -37 255 -91
255 -211 0 -88 -43 -149 -138 -192 -68 -30 -264 -38 -349 -14 -94 28 -149 90
-158 181 l-3 30 117 3 c117 3 117 3 124 -22 9 -38 41 -61 84 -61 46 0 70 19
70 55 0 43 -39 66 -150 91 -126 28 -168 51 -198 109 -59 114 7 237 148 281 43
13 222 10 278 -5z m-4211 -1018 c-4 -66 -7 -190 -7 -275 l0 -153 -415 0 -415
0 0 275 0 275 422 0 421 0 -6 -122z m2807 60 c12 -120 25 -364 32 -585 l7
-223 -416 0 -415 0 -6 148 c-3 81 -8 260 -11 397 -3 138 -8 267 -11 288 l-6
37 410 0 410 0 6 -62z m638 -182 c53 -26 102 -73 129 -126 32 -62 33 -177 2
-235 -52 -99 -136 -149 -248 -150 -59 0 -78 5 -124 30 -100 55 -148 145 -139
259 10 115 78 202 188 237 41 13 152 5 192 -15z"/>
<path d="M4030 3624 l0 -214 68 0 c94 0 134 14 175 60 33 36 39 51 51 138 6
42 -16 127 -40 160 -38 49 -78 65 -171 68 l-83 2 0 -214z"/>
<path d="M7644 3718 c-38 -18 -65 -80 -65 -151 -1 -111 45 -177 123 -177 45 0
76 13 100 44 14 17 18 41 18 119 0 102 -8 130 -44 159 -24 20 -98 23 -132 6z"/>
<path d="M4985 3763 c-59 -15 -95 -83 -95 -177 0 -122 46 -186 133 -186 87 0
131 66 130 192 -1 71 -26 133 -63 155 -22 14 -79 23 -105 16z"/>
<path d="M6605 3551 c-74 -8 -103 -26 -111 -69 -9 -47 19 -75 75 -74 48 1 83
24 105 70 19 39 21 83 4 80 -7 0 -40 -4 -73 -7z"/>
<path d="M7803 2742 c-12 -4 -43 -22 -68 -40 -120 -84 -127 -281 -14 -372 131
-105 309 -63 378 90 25 55 26 104 5 167 -23 67 -56 106 -117 136 -52 27 -129
35 -184 19z m175 -92 c62 -38 62 -102 1 -139 l-32 -20 24 -11 c28 -13 49 -52
49 -92 0 -24 -4 -28 -30 -28 -24 0 -31 5 -36 28 -14 66 -33 82 -101 82 l-33 0
0 -55 c0 -54 0 -55 -29 -55 l-30 0 -3 151 c-2 83 -1 153 1 155 2 2 45 4 95 4
73 0 97 -4 124 -20z"/>
<path d="M7815 2588 c2 -18 3 -42 4 -52 1 -17 7 -18 57 -13 60 6 84 20 84 48
0 34 -28 49 -90 49 l-58 0 3 -32z"/>
</g>
</svg>
